<mxfile host="app.diagrams.net" modified="2024-03-08T07:28:29.900Z" agent="Mozilla/5.0 (X11; Linux x86_64) AppleWebKit/537.36 (KHTML, like Gecko) Chrome/119.0.0.0 Safari/537.36" etag="kvoYzd29MVneclGDTjcE" version="24.0.2" type="device">
  <diagram name="PÃ¡gina-1" id="LVutkmW8EPBr0_7JQbk7">
    <mxGraphModel dx="1571" dy="767" grid="1" gridSize="10" guides="1" tooltips="1" connect="1" arrows="1" fold="1" page="1" pageScale="1" pageWidth="827" pageHeight="1169" math="0" shadow="0">
      <root>
        <mxCell id="0" />
        <mxCell id="1" parent="0" />
        <mxCell id="eYTk8Xob9PTA3oFa5-Jm-1" value="" style="rounded=0;whiteSpace=wrap;html=1;fillColor=#dae8fc;strokeColor=#6c8ebf;" vertex="1" parent="1">
          <mxGeometry x="80" y="170" width="920" height="640" as="geometry" />
        </mxCell>
        <mxCell id="eYTk8Xob9PTA3oFa5-Jm-2" value="&lt;font style=&quot;font-size: 31px;&quot;&gt;Cliente 1&lt;/font&gt;" style="text;html=1;align=center;verticalAlign=middle;whiteSpace=wrap;rounded=0;" vertex="1" parent="1">
          <mxGeometry x="470" y="690" width="130" height="30" as="geometry" />
        </mxCell>
        <mxCell id="eYTk8Xob9PTA3oFa5-Jm-3" value="&lt;font style=&quot;font-size: 19px;&quot;&gt;dados.json&lt;/font&gt;" style="text;html=1;align=center;verticalAlign=middle;whiteSpace=wrap;rounded=0;" vertex="1" parent="1">
          <mxGeometry x="160" y="385" width="60" height="30" as="geometry" />
        </mxCell>
        <mxCell id="eYTk8Xob9PTA3oFa5-Jm-4" value="&lt;font style=&quot;font-size: 19px;&quot;&gt;transacoes&lt;/font&gt;" style="text;html=1;align=center;verticalAlign=middle;whiteSpace=wrap;rounded=0;" vertex="1" parent="1">
          <mxGeometry x="620" y="580" width="60" height="30" as="geometry" />
        </mxCell>
        <mxCell id="eYTk8Xob9PTA3oFa5-Jm-6" value="" style="rounded=0;whiteSpace=wrap;html=1;" vertex="1" parent="1">
          <mxGeometry x="414" y="200" width="526" height="340" as="geometry" />
        </mxCell>
        <mxCell id="eYTk8Xob9PTA3oFa5-Jm-5" value="&lt;div&gt;{&lt;/div&gt;&lt;div&gt;&lt;span style=&quot;white-space: normal;&quot;&gt;&lt;span style=&quot;white-space:pre&quot;&gt;&#x9;&lt;/span&gt;&quot;limite&quot;:&lt;/span&gt;&lt;span style=&quot;background-color: initial;&quot;&gt;100000&lt;/span&gt;&lt;span style=&quot;background-color: initial; white-space: pre;&quot;&gt;&#x9;&lt;/span&gt;&lt;span style=&quot;background-color: initial;&quot;&gt;,&lt;/span&gt;&lt;/div&gt;&lt;div&gt;&lt;span style=&quot;white-space: normal;&quot;&gt;&lt;span style=&quot;white-space:pre&quot;&gt;&#x9;&lt;/span&gt;&quot;saldo&quot;:&lt;span style=&quot;white-space:pre&quot;&gt;&#x9;&lt;/span&gt;0,&lt;/span&gt;&lt;/div&gt;&lt;div&gt;&lt;span style=&quot;white-space: normal;&quot;&gt;&lt;span style=&quot;white-space:pre&quot;&gt;&#x9;&lt;/span&gt;&quot;total_transacoes&quot;:&lt;span style=&quot;white-space:pre&quot;&gt;&#x9;&lt;/span&gt;2,&lt;/span&gt;&lt;/div&gt;&lt;div&gt;&lt;span style=&quot;white-space: normal;&quot;&gt;&lt;span style=&quot;white-space:pre&quot;&gt;&#x9;&lt;/span&gt;&quot;ultima_transacao&quot;:&lt;span style=&quot;white-space:pre&quot;&gt;&#x9;&lt;/span&gt;1&lt;/span&gt;&lt;/div&gt;&lt;div style=&quot;&quot;&gt;}&lt;/div&gt;" style="rounded=0;whiteSpace=wrap;html=1;align=left;fillColor=#6a00ff;fontColor=#ffffff;strokeColor=#3700CC;" vertex="1" parent="1">
          <mxGeometry x="127.5" y="240" width="182.5" height="120" as="geometry" />
        </mxCell>
        <mxCell id="eYTk8Xob9PTA3oFa5-Jm-7" value="{&#xa;&amp;nbsp;&amp;nbsp;&amp;nbsp;&amp;nbsp;&quot;valor&quot;:&amp;nbsp;&amp;nbsp;&amp;nbsp;&amp;nbsp;-1,&#xa;&amp;nbsp;&amp;nbsp;&amp;nbsp;&amp;nbsp;&quot;segundos&quot;:&amp;nbsp;&amp;nbsp;&amp;nbsp;&amp;nbsp;1709871665,&#xa;&amp;nbsp;&amp;nbsp;&amp;nbsp;&amp;nbsp;&quot;nanosegundos&quot;:&amp;nbsp;&amp;nbsp;&amp;nbsp;&amp;nbsp;963735,&#xa;&amp;nbsp;&amp;nbsp;&amp;nbsp;&amp;nbsp;&quot;descricao&quot;:&amp;nbsp;&amp;nbsp;&amp;nbsp;&amp;nbsp;&quot;0123456789&quot;&#xa;}" style="whiteSpace=wrap;html=1;aspect=fixed;fillColor=#6a00ff;fontColor=#ffffff;strokeColor=#3700CC;align=left;" vertex="1" parent="1">
          <mxGeometry x="450" y="260" width="190" height="190" as="geometry" />
        </mxCell>
        <mxCell id="eYTk8Xob9PTA3oFa5-Jm-8" value="&lt;div&gt;{&lt;/div&gt;&lt;div&gt;&lt;span style=&quot;white-space: normal;&quot;&gt;&lt;span style=&quot;white-space:pre&quot;&gt;&#x9;&lt;/span&gt;&quot;valor&quot;:&lt;span style=&quot;white-space:pre&quot;&gt;&#x9;&lt;/span&gt;-1,&lt;/span&gt;&lt;/div&gt;&lt;div&gt;&lt;span style=&quot;white-space: normal;&quot;&gt;&lt;span style=&quot;white-space:pre&quot;&gt;&#x9;&lt;/span&gt;&quot;segundos&quot;:&lt;span style=&quot;white-space:pre&quot;&gt;&#x9;&lt;/span&gt;1709871667,&lt;/span&gt;&lt;/div&gt;&lt;div&gt;&lt;span style=&quot;white-space: normal;&quot;&gt;&lt;span style=&quot;white-space:pre&quot;&gt;&#x9;&lt;/span&gt;&quot;nanosegundos&quot;:&lt;span style=&quot;white-space:pre&quot;&gt;&#x9;&lt;/span&gt;18698,&lt;/span&gt;&lt;/div&gt;&lt;div&gt;&lt;span style=&quot;white-space: normal;&quot;&gt;&lt;span style=&quot;white-space:pre&quot;&gt;&#x9;&lt;/span&gt;&quot;descricao&quot;:&lt;span style=&quot;white-space:pre&quot;&gt;&#x9;&lt;/span&gt;&quot;0123456789&quot;&lt;/span&gt;&lt;/div&gt;&lt;div&gt;}&lt;/div&gt;" style="whiteSpace=wrap;html=1;aspect=fixed;fillColor=#6a00ff;fontColor=#ffffff;strokeColor=#3700CC;align=left;" vertex="1" parent="1">
          <mxGeometry x="670" y="260" width="190" height="190" as="geometry" />
        </mxCell>
        <mxCell id="eYTk8Xob9PTA3oFa5-Jm-10" value="0.jsom" style="text;html=1;align=center;verticalAlign=middle;whiteSpace=wrap;rounded=0;" vertex="1" parent="1">
          <mxGeometry x="505" y="450" width="60" height="50" as="geometry" />
        </mxCell>
        <mxCell id="eYTk8Xob9PTA3oFa5-Jm-11" value="1.jsom" style="text;html=1;align=center;verticalAlign=middle;whiteSpace=wrap;rounded=0;" vertex="1" parent="1">
          <mxGeometry x="720" y="460" width="65" height="50" as="geometry" />
        </mxCell>
      </root>
    </mxGraphModel>
  </diagram>
</mxfile>
